Coordinates
version=1
nRows=17
nColumns=36
inDegrees=yes

Units are S.I. units (second, meters, Newtons, ...)
If the header above contains a line with 'inDegrees', this indicates whether rotational values are in degrees (yes) or radians (no).

endheader
time	pelvis_tilt	pelvis_list	pelvis_rotation	pelvis_tx	pelvis_ty	pelvis_tz	hip_flexion_r	hip_adduction_r	hip_rotation_r	knee_angle_r	knee_angle_r_beta	ankle_angle_r	subtalar_angle_r	mtp_angle_r	hip_flexion_l	hip_adduction_l	hip_rotation_l	knee_angle_l	knee_angle_l_beta	ankle_angle_l	subtalar_angle_l	mtp_angle_l	lumbar_extension	lumbar_bending	lumbar_rotation	arm_flex_r	arm_add_r	arm_rot_r	elbow_flex_r	pro_sup_r	arm_flex_l	arm_add_l	arm_rot_l	elbow_flex_l	pro_sup_l
      8.08333330	    -33.90148222	     -1.22630429	     -4.20508932	      0.94271107	      0.79403469	     -0.17807222	     18.68892278	     -8.14616333	      2.37834609	     50.20982269	      0.87632672	    -26.84220736	      3.84816084	     -7.49999987	     70.47576266	      3.63380218	     -2.77873362	     54.60136638	      0.95297362	     21.21458009	    -18.04826565	     -7.49999987	     -9.83042637	    -11.11113649	      7.29303850	     81.17261563	    -17.31196886	     44.30048854	     90.80523363	     91.15746152	     84.77544851	    -28.01269503	     52.65264556	    103.28614193	     80.19060444
      8.10000000	    -34.41698515	     -1.14220681	     -4.37246880	      0.94782528	      0.78556936	     -0.17931859	     18.96597759	     -8.25025008	      2.80951573	     51.06140263	      0.89118960	    -25.57870940	      4.39302909	     -7.49999987	     71.79416852	      3.94971679	     -2.37966940	     55.86194933	      0.97497494	     21.77469901	    -18.69081228	     -7.49999987	     -9.86063078	    -10.88202007	      7.93498929	     82.27417680	    -18.04523833	     44.38206680	     90.59665005	     91.76885043	     83.93284248	    -27.05833330	     51.03888323	    102.65683007	     80.47043728
      8.11666670	    -35.05599959	     -1.01679137	     -4.46374384	      0.94260797	      0.78155084	     -0.17615389	     19.02509774	     -8.40166758	      2.70562040	     51.05110606	      0.89100989	    -24.88826747	      4.36619892	     -7.49999987	     73.61303426	      3.90518702	     -2.28858699	     57.49802771	      1.00352990	     22.32622377	    -19.29663762	     -7.49999987	    -10.19020287	    -11.02720131	      8.18503100	     83.76054363	    -18.17721064	     43.84825340	     90.21646343	     91.85509100	     84.67995103	    -26.74646712	     50.42613194	    102.44168447	     80.51730286
      8.13333330	    -35.84924291	     -0.93903814	     -4.54360195	      0.94318225	      0.77265727	     -0.17554163	     18.84756139	     -8.72785338	      1.96070231	     50.79412802	      0.88652477	    -23.64342144	      4.85456357	     -7.49999987	     75.18318490	      3.98861649	     -2.04974814	     58.68899513	      1.02431620	     22.96108212	    -19.62774282	     -7.49999987	     -9.94240670	    -10.89566856	      8.11672786	     84.86064196	    -18.13113659	     44.30079883	     89.73443153	     89.74469771	     85.63881120	    -26.56298961	     50.13634989	    101.62321969	     79.14262371
      8.15000000	    -36.64293160	     -0.37632394	     -4.49140928	      0.94443769	      0.76910385	     -0.18138976	     18.36387100	     -9.83208057	      1.00629995	     49.37208265	      0.86170540	    -20.45344839	      5.92105504	     -7.49999987	     76.63195465	      4.45895119	     -2.55887860	     59.86409149	      1.04482550	     23.84371003	    -19.99744520	     -7.49999987	     -9.97295349	    -11.12922777	      7.88731386	     86.16884023	    -18.06683077	     44.89377753	     89.52907301	     90.93820116	     86.68402619	    -26.72780042	     49.86198138	    101.32784123	     79.74997803
      8.16666670	    -37.32355262	     -0.20056029	     -4.46721605	      0.94084609	      0.75930898	     -0.18400731	     18.36368508	    -10.56416803	      0.28434284	     49.04778375	      0.85604532	    -18.81983574	      6.38108462	     -7.49999987	     78.17388671	      4.80800706	     -2.67355420	     61.01267014	      1.06487198	     24.49682248	    -20.08895740	     -7.49999987	    -10.03400545	    -10.86630931	      7.34031805	     87.52055465	    -17.31974730	     45.17872485	     89.26546105	     94.90673697	     87.18259135	    -27.27143044	     49.30791892	    101.91535875	     82.18986798
      8.18333330	    -38.37701914	      0.18745038	     -4.92033197	      0.93648082	      0.75579783	     -0.18122853	     18.93437267	    -11.21146958	     -0.40388326	     48.13413737	      0.84009918	    -16.45300126	      5.05702661	     -7.49999987	     79.80773768	      4.61651062	     -2.87228281	     61.43991156	      1.07232875	     23.82397150	    -21.25392445	     -7.49999987	     -9.60691763	    -10.91550038	      8.19949547	     88.78942026	    -17.58369507	     45.67624498	     89.83539108	     95.06542351	     86.55390813	    -26.03537097	     47.80999190	    102.35765944	     82.30637621
      8.20000000	    -38.25986238	      0.83756452	     -4.70361207	      0.94623367	      0.75523652	     -0.17931781	     17.19645450	    -11.96195991	     -1.13733116	     46.65061418	      0.81420682	    -15.75386275	      5.11961665	     -7.49999987	     79.77832970	      4.94738396	     -3.46220284	     62.07499397	      1.08341303	     23.87607829	    -22.20683887	     -7.49999987	     -9.66251719	    -11.48770455	      9.20576613	     88.91856353	    -18.35983931	     45.71552738	     89.44897622	     95.16395199	     84.41950162	    -24.31666045	     45.73478547	    102.00709698	     82.40123138
      8.21666670	    -38.75723332	      1.22865836	     -4.58816946	      0.93700237	      0.74743460	     -0.17987579	     17.04458291	    -12.19171087	     -1.16175289	     46.26890938	      0.80754481	    -17.99391921	      3.82279336	     -7.49999987	     80.86336549	      5.11130666	     -3.72518434	     62.59219043	      1.09243981	     23.84105890	    -22.28105133	     -7.49999987	     -9.70541710	    -11.75942004	      9.80419738	     89.87569433	    -18.86458525	     46.53085382	     89.12780834	     95.43038301	     83.56536388	    -22.81705279	     44.09753430	    101.38891259	     82.75989183
      8.23333330	    -39.38689901	      1.46340200	     -4.39773467	      0.93386527	      0.74565980	     -0.18271685	     17.41878181	    -12.19220501	     -1.04944162	     45.94632402	      0.80191463	    -22.18076649	      4.97002577	     -7.49999987	     82.19167833	      5.32658607	     -3.98217533	     62.91332139	      1.09804460	     23.85631211	    -21.42566176	     -7.49999987	    -10.08729419	    -11.85463815	      9.53253178	     90.94010244	    -18.85043421	     47.13208877	     89.31067273	     95.34868988	     83.89340091	    -22.65845602	     43.32943642	    101.03364928	     82.93051584
      8.25000000	    -39.71663140	      1.84258667	     -3.83897256	      0.94329594	      0.74364018	     -0.17664091	     16.39740606	    -11.94018269	     -0.94329137	     44.67950175	      0.77980441	    -23.46973565	      3.83934783	     -7.49999987	     82.59995431	      5.53510932	     -4.47910310	     63.49132172	      1.10813261	     24.17142150	    -21.22407609	     -7.49999987	    -10.60976357	    -12.62388280	      8.53489439	     91.05583706	    -18.58083757	     46.52653619	     89.78388953	     95.10289459	     86.20355252	    -22.77625223	     44.21321792	    100.52746168	     83.08833265
      8.26666670	    -40.53562842	      1.85463437	     -3.95022875	      0.93544746	      0.74204436	     -0.18283759	     16.97207043	    -11.82996968	     -1.01122723	     43.91152889	      0.76640076	    -20.37976960	      0.96388554	     -7.49999987	     83.76742298	      5.55200643	     -4.59877057	     63.98459244	      1.11674181	     24.30172296	    -21.34869363	     -7.49999987	    -11.02140447	    -12.47868702	      8.37279763	     92.06036053	    -18.57580497	     45.82224555	     90.05540065	     95.03820235	     87.11895952	    -22.66068665	     43.82388522	    100.71826218	     83.07792458
      8.28333330	    -40.93853318	      2.23741691	     -3.08713250	      0.94457332	      0.73222614	     -0.17702995	     15.69859204	    -11.14884225	      0.67842462	     42.74954270	      0.74612027	    -25.54391993	      4.48053192	     -7.49999987	     84.12993864	      5.98674661	     -5.00359238	     64.22311454	      1.12090480	     24.31685835	    -20.98732291	     -7.49999987	    -10.89584144	    -13.25439343	      7.72423101	     91.71956230	    -19.01395277	     44.72146454	     90.58220830	     92.47636559	     86.89262430	    -21.79768996	     43.63408082	    100.75410114	     81.32047719
      8.30000000	    -41.75492849	      2.53000233	     -3.12441732	      0.94294404	      0.72945050	     -0.17596567	     15.35223560	    -10.70877215	      1.03085613	     40.74656969	      0.71116180	    -24.23586436	      3.11774911	     -7.49999987	     85.27975475	      6.02375243	     -5.20377012	     64.94663651	      1.13353265	     25.35118720	    -21.12297671	     -7.49999987	    -10.39811422	    -13.80402733	      8.26850731	     91.52043683	    -19.54987253	     44.12585656	     91.11009417	     92.73463692	     85.28414997	    -21.18870831	     42.05462485	    101.36479535	     81.42779323
      8.31666670	    -42.16698055	      2.52052404	     -2.29574111	      0.94629781	      0.71629111	     -0.17397103	     14.99299844	    -10.29846273	      2.09184409	     41.17821547	      0.71869544	    -21.42026126	      4.39405862	     -7.49999987	     86.65357069	      6.46456475	     -5.50139675	     66.61479534	      1.16264751	     26.93302013	    -19.92776114	     -7.49999987	     -9.84473769	    -14.12494978	      7.93073719	     91.11280093	    -20.31177546	     43.96281818	     91.14402367	     89.80612184	     84.22412883	    -20.30472695	     41.31876928	    101.12985072	     79.46329865
      8.33333330	    -43.07196596	      2.81814206	     -2.48207082	      0.94615102	      0.71526256	     -0.17369982	     15.15569904	     -9.86845550	      4.11733487	     40.26450890	      0.70274825	    -18.20441381	      4.17306388	     -7.49999987	     87.73573133	      6.37532632	     -5.73548609	     67.24236720	      1.17360070	     27.57049451	    -20.01785792	     -7.49999987	     -9.23290572	    -14.77720884	      7.51005026	     91.03402771	    -19.55167730	     42.40033054	     91.08336170	     93.95107174	     86.06472205	    -20.99440103	     42.26405813	    101.10819459	     81.75179945
      8.35000000	    -43.64623612	      2.98104397	     -2.62512018	      0.94547284	      0.70944341	     -0.17415201	     15.02637996	     -9.49448882	      5.80229744	     39.51316541	      0.68963483	    -17.83104930	      3.17431804	     -7.49999987	     88.86577274	      6.44506711	     -5.61447286	     67.80495333	      1.18341968	     28.31480353	    -19.56579007	     -7.49999987	     -9.06276075	    -15.03376961	      7.01115917	     91.30714877	    -18.60766217	     41.62823308	     91.15339112	     93.46811225	     88.06661530	    -21.61277216	     43.50827944	    101.36280901	     81.22530210
